<svg width="595" height="841"><g transform="translate(30,30)"><g id="servers"><g class="server" id="s_h0" transform="translate(152.68879804643802,243.76366469283585)"><circle cx="0" cy="0" r="14.074470082218461" style="fill: #999999; fill-opacity: 0.7; cursor: pointer; stroke-width: 0px;"></circle></g><g class="server" id="s_h1" transform="translate(0.6737225956749171,166.2397460018998)"><circle cx="0" cy="0" r="28.054117239054563" style="fill: #999999; fill-opacity: 0.7; cursor: pointer; stroke-width: 0px;"></circle></g><g class="server" id="s_h2" transform="translate(235.87408370920457,223.96303603817705)"><circle cx="0" cy="0" r="29.57568712806088" style="fill: #999999; fill-opacity: 0.7; cursor: pointer; stroke-width: 0px;"></circle></g><g class="server" id="s_h3" transform="translate(12.84006824833341,74.63018194217545)"><circle cx="0" cy="0" r="10.94684916378292" style="fill: #999999; fill-opacity: 0.7; cursor: pointer; stroke-width: 0px;"></circle></g><g class="server selected" id="s_h4" transform="translate(530.2845169440843,29.41412734725509)"><circle cx="0" cy="0" r="22.104932571381873" style="fill: #00aeff; fill-opacity: 0.7; cursor: pointer; stroke-width: 2px; stroke: #00aeff; stroke-opacity: 1;"></circle></g><g class="server" id="s_h5" transform="translate(399.8923580918927,231.36373540747593)"><circle cx="0" cy="0" r="10.525559650462851" style="fill: #999999; fill-opacity: 0.7; cursor: pointer; stroke-width: 0px;"></circle></g><g class="server" id="s_h6" transform="translate(11.208329615183175,208.52164574957135)"><circle cx="0" cy="0" r="15.222933366117088" style="fill: #999999; fill-opacity: 0.7; cursor: pointer; stroke-width: 0px;"></circle></g><g class="server" id="s_h7" transform="translate(8.541159169981256,39.54142570266811)"><circle cx="0" cy="0" r="23.821889435521484" style="fill: #999999; fill-opacity: 0.7; cursor: pointer; stroke-width: 0px;"></circle></g><g class="server" id="s_h8" transform="translate(156.6717602510471,40.480614902957655)"><circle cx="0" cy="0" r="28.4420541113902" style="fill: #999999; fill-opacity: 0.7; cursor: pointer; stroke-width: 0px;"></circle></g><g class="server" id="s_h9" transform="translate(398.1191750941798,90.933747274143)"><circle cx="0" cy="0" r="12.829882341890634" style="fill: #999999; fill-opacity: 0.7; cursor: pointer; stroke-width: 0px;"></circle></g><g class="server" id="s_l0" transform="translate(461.04487205739133,622.2752990733716)"><circle cx="0" cy="0" r="11.226401289754698" style="fill: #999999; fill-opacity: 0.7; cursor: pointer; stroke-width: 0px;"></circle></g><g class="server" id="s_l1" transform="translate(393.231045040302,648.7500066374196)"><circle cx="0" cy="0" r="4.844505900779754" style="fill: #999999; fill-opacity: 0.7; cursor: pointer; stroke-width: 0px;"></circle></g><g class="server" id="s_l2" transform="translate(295.4355367901735,675.2018397737993)"><circle cx="0" cy="0" r="11.1536920426064" style="fill: #999999; fill-opacity: 0.7; cursor: pointer; stroke-width: 0px;"></circle></g><g class="server" id="s_l3" transform="translate(110.41709939483553,736.8891364798765)"><circle cx="0" cy="0" r="10.778317519270342" style="fill: #999999; fill-opacity: 0.7; cursor: pointer; stroke-width: 0px;"></circle></g><g class="server" id="s_l4" transform="translate(465.08559664012864,737.1911917572725)"><circle cx="0" cy="0" r="5.9050255835951635" style="fill: #999999; fill-opacity: 0.7; cursor: pointer; stroke-width: 0px;"></circle></g><g class="server" id="s_l5" transform="translate(149.5402086386457,719.2395349018043)"><circle cx="0" cy="0" r="11.578803058371317" style="fill: #999999; fill-opacity: 0.7; cursor: pointer; stroke-width: 0px;"></circle></g><g class="server" id="s_l6" transform="translate(201.89203488873318,613.1430169476662)"><circle cx="0" cy="0" r="9.562182276739552" style="fill: #999999; fill-opacity: 0.7; cursor: pointer; stroke-width: 0px;"></circle></g><g class="server" id="s_l7" transform="translate(33.5798012430314,682.5901076620212)"><circle cx="0" cy="0" r="11.031886301097593" style="fill: #999999; fill-opacity: 0.7; cursor: pointer; stroke-width: 0px;"></circle></g><g class="server" id="s_l8" transform="translate(508.27108934987336,748.187907008687)"><circle cx="0" cy="0" r="11.613457391664403" style="fill: #999999; fill-opacity: 0.7; cursor: pointer; stroke-width: 0px;"></circle></g><g class="server" id="s_l9" transform="translate(411.5045929874759,642.1825027630548)"><circle cx="0" cy="0" r="11.384863489337386" style="fill: #999999; fill-opacity: 0.7; cursor: pointer; stroke-width: 0px;"></circle></g><g class="server" id="s_l10" transform="translate(491.5468152926769,746.5390429802937)"><circle cx="0" cy="0" r="5.8466706465890645" style="fill: #999999; fill-opacity: 0.7; cursor: pointer; stroke-width: 0px;"></circle></g><g class="server" id="s_l11" transform="translate(295.9047848149203,661.9211321834591)"><circle cx="0" cy="0" r="11.232738784947912" style="fill: #999999; fill-opacity: 0.7; cursor: pointer; stroke-width: 0px;"></circle></g><g class="server" id="s_l12" transform="translate(161.0434582841117,614.0841370237758)"><circle cx="0" cy="0" r="10.272089821355179" style="fill: #999999; fill-opacity: 0.7; cursor: pointer; stroke-width: 0px;"></circle></g><g class="server" id="s_l13" transform="translate(523.0092472932301,611.9180662633735)"><circle cx="0" cy="0" r="9.645705334792629" style="fill: #999999; fill-opacity: 0.7; cursor: pointer; stroke-width: 0px;"></circle></g><g class="server" id="s_l14" transform="translate(199.45303477463312,759.0931202761712)"><circle cx="0" cy="0" r="9.976360869620574" style="fill: #999999; fill-opacity: 0.7; cursor: pointer; stroke-width: 0px;"></circle></g><g class="server" id="s_l15" transform="translate(280.66835746052675,679.7090397771099)"><circle cx="0" cy="0" r="7.005426523774156" style="fill: #999999; fill-opacity: 0.7; cursor: pointer; stroke-width: 0px;"></circle></g><g class="server" id="s_l16" transform="translate(459.89481820724905,750.377889916359)"><circle cx="0" cy="0" r="8.162568835435987" style="fill: #999999; fill-opacity: 0.7; cursor: pointer; stroke-width: 0px;"></circle></g><g class="server" id="s_l17" transform="translate(209.28823327296413,751.0776728359051)"><circle cx="0" cy="0" r="9.574605207404959" style="fill: #999999; fill-opacity: 0.7; cursor: pointer; stroke-width: 0px;"></circle></g><g class="server" id="s_l18" transform="translate(493.1230064271949,723.9835306802997)"><circle cx="0" cy="0" r="6.948160588244943" style="fill: #999999; fill-opacity: 0.7; cursor: pointer; stroke-width: 0px;"></circle></g><g class="server" id="s_l19" transform="translate(236.94750342634507,737.7428934944328)"><circle cx="0" cy="0" r="10.371074150339973" style="fill: #999999; fill-opacity: 0.7; cursor: pointer; stroke-width: 0px;"></circle></g><g class="server" id="s_l20" transform="translate(491.9196847314015,590.666456711595)"><circle cx="0" cy="0" r="11.516361736957318" style="fill: #999999; fill-opacity: 0.7; cursor: pointer; stroke-width: 0px;"></circle></g><g class="server" id="s_l21" transform="translate(89.5702651864849,631.8219541782164)"><circle cx="0" cy="0" r="9.916506187321229" style="fill: #999999; fill-opacity: 0.7; cursor: pointer; stroke-width: 0px;"></circle></g><g class="server" id="s_l22" transform="translate(491.4195431175176,588.2523604197195)"><circle cx="0" cy="0" r="8.774772867907261" style="fill: #999999; fill-opacity: 0.7; cursor: pointer; stroke-width: 0px;"></circle></g><g class="server" id="s_l23" transform="translate(387.8644095850177,598.5869342833175)"><circle cx="0" cy="0" r="9.886686936259284" style="fill: #999999; fill-opacity: 0.7; cursor: pointer; stroke-width: 0px;"></circle></g><g class="server" id="s_l24" transform="translate(321.1521811177954,661.5240655323723)"><circle cx="0" cy="0" r="10.512281624852239" style="fill: #999999; fill-opacity: 0.7; cursor: pointer; stroke-width: 0px;"></circle></g><g class="server" id="s_l25" transform="translate(35.58458059094846,752.7257669960964)"><circle cx="0" cy="0" r="5.145792679084522" style="fill: #999999; fill-opacity: 0.7; cursor: pointer; stroke-width: 0px;"></circle></g><g class="server" id="s_l26" transform="translate(390.9177221788559,734.0101774928626)"><circle cx="0" cy="0" r="8.518357556716248" style="fill: #999999; fill-opacity: 0.7; cursor: pointer; stroke-width: 0px;"></circle></g><g class="server" id="s_l27" transform="translate(276.8550129723735,693.4737252513296)"><circle cx="0" cy="0" r="10.997687453521364" style="fill: #999999; fill-opacity: 0.7; cursor: pointer; stroke-width: 0px;"></circle></g><g class="server" id="s_l28" transform="translate(119.32243727031164,733.1174922870123)"><circle cx="0" cy="0" r="11.277567164064981" style="fill: #999999; fill-opacity: 0.7; cursor: pointer; stroke-width: 0px;"></circle></g><g class="server" id="s_l29" transform="translate(532.764475325821,741.4225686454447)"><circle cx="0" cy="0" r="7.921612367697463" style="fill: #999999; fill-opacity: 0.7; cursor: pointer; stroke-width: 0px;"></circle></g><g class="server" id="s_l30" transform="translate(417.96024710987695,597.4964755052351)"><circle cx="0" cy="0" r="10.034938123247732" style="fill: #999999; fill-opacity: 0.7; cursor: pointer; stroke-width: 0px;"></circle></g><g class="server" id="s_l31" transform="translate(286.57430044026114,713.7216176458751)"><circle cx="0" cy="0" r="8.898864085420861" style="fill: #999999; fill-opacity: 0.7; cursor: pointer; stroke-width: 0px;"></circle></g><g class="server" id="s_l32" transform="translate(140.7652281492483,731.4633067350369)"><circle cx="0" cy="0" r="11.539487153602732" style="fill: #999999; fill-opacity: 0.7; cursor: pointer; stroke-width: 0px;"></circle></g><g class="server" id="s_l33" transform="translate(295.753235911252,682.6157847554423)"><circle cx="0" cy="0" r="11.02121348409467" style="fill: #999999; fill-opacity: 0.7; cursor: pointer; stroke-width: 0px;"></circle></g><g class="server" id="s_l34" transform="translate(204.89553343388252,633.3681422005757)"><circle cx="0" cy="0" r="8.029912063836399" style="fill: #999999; fill-opacity: 0.7; cursor: pointer; stroke-width: 0px;"></circle></g><g class="server" id="s_l35" transform="translate(360.0508256966714,653.9338050032384)"><circle cx="0" cy="0" r="8.344138062925333" style="fill: #999999; fill-opacity: 0.7; cursor: pointer; stroke-width: 0px;"></circle></g><g class="server" id="s_l36" transform="translate(482.78716058353893,668.390716732596)"><circle cx="0" cy="0" r="10.326541755396843" style="fill: #999999; fill-opacity: 0.7; cursor: pointer; stroke-width: 0px;"></circle></g><g class="server" id="s_l37" transform="translate(159.482048334321,694.5533449124778)"><circle cx="0" cy="0" r="10.873442398750012" style="fill: #999999; fill-opacity: 0.7; cursor: pointer; stroke-width: 0px;"></circle></g><g class="server" id="s_l38" transform="translate(364.5991297578439,600.2839691037661)"><circle cx="0" cy="0" r="6.708527949113776" style="fill: #999999; fill-opacity: 0.7; cursor: pointer; stroke-width: 0px;"></circle></g><g class="server" id="s_l39" transform="translate(299.1433758591302,637.8660937842214)"><circle cx="0" cy="0" r="4.952767197580693" style="fill: #999999; fill-opacity: 0.7; cursor: pointer; stroke-width: 0px;"></circle></g><g class="server" id="s_l40" transform="translate(269.3409303331282,596.0448295710958)"><circle cx="0" cy="0" r="8.458633353546357" style="fill: #999999; fill-opacity: 0.7; cursor: pointer; stroke-width: 0px;"></circle></g><g class="server" id="s_l41" transform="translate(160.04419411765411,749.6890876767575)"><circle cx="0" cy="0" r="8.996397579027823" style="fill: #999999; fill-opacity: 0.7; cursor: pointer; stroke-width: 0px;"></circle></g><g class="server" id="s_l42" transform="translate(269.1676573990844,648.9570212647668)"><circle cx="0" cy="0" r="5.246089634623025" style="fill: #999999; fill-opacity: 0.7; cursor: pointer; stroke-width: 0px;"></circle></g><g class="server" id="s_l43" transform="translate(106.98193801334128,681.1988585361396)"><circle cx="0" cy="0" r="9.464957279173426" style="fill: #999999; fill-opacity: 0.7; cursor: pointer; stroke-width: 0px;"></circle></g><g class="server" id="s_l44" transform="translate(256.0295935010072,734.8996231605997)"><circle cx="0" cy="0" r="11.128435477800862" style="fill: #999999; fill-opacity: 0.7; cursor: pointer; stroke-width: 0px;"></circle></g><g class="server" id="s_l45" transform="translate(415.4097982356325,736.1772698345012)"><circle cx="0" cy="0" r="9.271249085836477" style="fill: #999999; fill-opacity: 0.7; cursor: pointer; stroke-width: 0px;"></circle></g><g class="server" id="s_l46" transform="translate(105.2348259696737,657.5741932366509)"><circle cx="0" cy="0" r="7.372814162507346" style="fill: #999999; fill-opacity: 0.7; cursor: pointer; stroke-width: 0px;"></circle></g><g class="server" id="s_l47" transform="translate(357.69584862631746,627.2124213477946)"><circle cx="0" cy="0" r="6.597941909932335" style="fill: #999999; fill-opacity: 0.7; cursor: pointer; stroke-width: 0px;"></circle></g><g class="server" id="s_l48" transform="translate(71.65746270096861,611.6060912103276)"><circle cx="0" cy="0" r="6.027665697546221" style="fill: #999999; fill-opacity: 0.7; cursor: pointer; stroke-width: 0px;"></circle></g><g class="server" id="s_l49" transform="translate(337.4070210510399,763.919554687338)"><circle cx="0" cy="0" r="8.850390692842641" style="fill: #999999; fill-opacity: 0.7; cursor: pointer; stroke-width: 0px;"></circle></g><g class="server" id="s_l50" transform="translate(383.9573827071581,748.8074418854085)"><circle cx="0" cy="0" r="5.01949451750821" style="fill: #999999; fill-opacity: 0.7; cursor: pointer; stroke-width: 0px;"></circle></g><g class="server" id="s_l51" transform="translate(142.78297340497375,700.946024924342)"><circle cx="0" cy="0" r="11.74094093366838" style="fill: #999999; fill-opacity: 0.7; cursor: pointer; stroke-width: 0px;"></circle></g><g class="server" id="s_l52" transform="translate(291.44257841748185,772.1269291565986)"><circle cx="0" cy="0" r="10.535990464947448" style="fill: #999999; fill-opacity: 0.7; cursor: pointer; stroke-width: 0px;"></circle></g><g class="server" id="s_l53" transform="translate(190.29023188748397,709.4357755032252)"><circle cx="0" cy="0" r="3.540111767413937" style="fill: #999999; fill-opacity: 0.7; cursor: pointer; stroke-width: 0px;"></circle></g><g class="server" id="s_l54" transform="translate(288.2542854791973,729.5348693536944)"><circle cx="0" cy="0" r="8.902701547172885" style="fill: #999999; fill-opacity: 0.7; cursor: pointer; stroke-width: 0px;"></circle></g><g class="server" id="s_l55" transform="translate(301.68155352119356,598.1796272259089)"><circle cx="0" cy="0" r="7.803903716359963" style="fill: #999999; fill-opacity: 0.7; cursor: pointer; stroke-width: 0px;"></circle></g><g class="server" id="s_l56" transform="translate(327.25436359178275,701.2495477019111)"><circle cx="0" cy="0" r="6.388730461332661" style="fill: #999999; fill-opacity: 0.7; cursor: pointer; stroke-width: 0px;"></circle></g><g class="server" id="s_l57" transform="translate(115.24479715735652,619.094700587797)"><circle cx="0" cy="0" r="7.649297262111955" style="fill: #999999; fill-opacity: 0.7; cursor: pointer; stroke-width: 0px;"></circle></g><g class="server" id="s_l58" transform="translate(242.40793126169592,712.771048216091)"><circle cx="0" cy="0" r="8.1626238740394" style="fill: #999999; fill-opacity: 0.7; cursor: pointer; stroke-width: 0px;"></circle></g><g class="server" id="s_l59" transform="translate(43.00721702049486,590.9737504568184)"><circle cx="0" cy="0" r="8.950208555053234" style="fill: #999999; fill-opacity: 0.7; cursor: pointer; stroke-width: 0px;"></circle></g><g class="server" id="s_l60" transform="translate(130.40361030609347,772.0099921092624)"><circle cx="0" cy="0" r="5.363357046385849" style="fill: #999999; fill-opacity: 0.7; cursor: pointer; stroke-width: 0px;"></circle></g><g class="server" id="s_l61" transform="translate(102.22190549829975,776.4594334042049)"><circle cx="0" cy="0" r="11.623739453291345" style="fill: #999999; fill-opacity: 0.7; cursor: pointer; stroke-width: 0px;"></circle></g><g class="server" id="s_l62" transform="translate(28.46881739096716,647.2725484112743)"><circle cx="0" cy="0" r="5.9591953648801645" style="fill: #999999; fill-opacity: 0.7; cursor: pointer; stroke-width: 0px;"></circle></g><g class="server" id="s_l63" transform="translate(43.95870451349765,767.5154361285386)"><circle cx="0" cy="0" r="8.638861735401932" style="fill: #999999; fill-opacity: 0.7; cursor: pointer; stroke-width: 0px;"></circle></g><g class="server" id="s_l64" transform="translate(25.00622879830189,719.1646696628886)"><circle cx="0" cy="0" r="6.502796159068289" style="fill: #999999; fill-opacity: 0.7; cursor: pointer; stroke-width: 0px;"></circle></g><g class="server" id="s_l65" transform="translate(368.3571279188618,765.5299643559265)"><circle cx="0" cy="0" r="5.510669209633019" style="fill: #999999; fill-opacity: 0.7; cursor: pointer; stroke-width: 0px;"></circle></g><g class="server" id="s_l66" transform="translate(149.25241481279954,600.8647154883365)"><circle cx="0" cy="0" r="5.312472311418125" style="fill: #999999; fill-opacity: 0.7; cursor: pointer; stroke-width: 0px;"></circle></g><g class="server" id="s_l67" transform="translate(379.0160166961141,687.0498427790008)"><circle cx="0" cy="0" r="11.868425493727043" style="fill: #999999; fill-opacity: 0.7; cursor: pointer; stroke-width: 0px;"></circle></g><g class="server" id="s_l68" transform="translate(349.8633623297792,719.7773781021242)"><circle cx="0" cy="0" r="8.005189372349054" style="fill: #999999; fill-opacity: 0.7; cursor: pointer; stroke-width: 0px;"></circle></g><g class="server" id="s_l69" transform="translate(167.1691146690864,774.4465727804345)"><circle cx="0" cy="0" r="9.927432115214945" style="fill: #999999; fill-opacity: 0.7; cursor: pointer; stroke-width: 0px;"></circle></g><g class="server" id="s_l70" transform="translate(5.38900310988538,688.4767576006707)"><circle cx="0" cy="0" r="8.896979390537721" style="fill: #999999; fill-opacity: 0.7; cursor: pointer; stroke-width: 0px;"></circle></g><g class="server" id="s_l71" transform="translate(426.32602795842104,744.2016759766848)"><circle cx="0" cy="0" r="5.908455829919556" style="fill: #999999; fill-opacity: 0.7; cursor: pointer; stroke-width: 0px;"></circle></g><g class="server" id="s_l72" transform="translate(327.82769488403574,769.024081585987)"><circle cx="0" cy="0" r="4.630286102858572" style="fill: #999999; fill-opacity: 0.7; cursor: pointer; stroke-width: 0px;"></circle></g><g class="server" id="s_l73" transform="translate(222.32806743355468,658.4172465601587)"><circle cx="0" cy="0" r="10.553394810833822" style="fill: #999999; fill-opacity: 0.7; cursor: pointer; stroke-width: 0px;"></circle></g><g class="server" id="s_l74" transform="translate(97.93807394336909,658.6971640466945)"><circle cx="0" cy="0" r="10.06582732264863" style="fill: #999999; fill-opacity: 0.7; cursor: pointer; stroke-width: 0px;"></circle></g><g class="server" id="s_l75" transform="translate(401.5828845172655,641.69992828049)"><circle cx="0" cy="0" r="6.689749377488044" style="fill: #999999; fill-opacity: 0.7; cursor: pointer; stroke-width: 0px;"></circle></g><g class="server" id="s_l76" transform="translate(504.5494130451698,656.5587820382789)"><circle cx="0" cy="0" r="5.1597395396420325" style="fill: #999999; fill-opacity: 0.7; cursor: pointer; stroke-width: 0px;"></circle></g><g class="server" id="s_l77" transform="translate(465.6971527589485,738.4005901946803)"><circle cx="0" cy="0" r="11.317640337215384" style="fill: #999999; fill-opacity: 0.7; cursor: pointer; stroke-width: 0px;"></circle></g><g class="server" id="s_l78" transform="translate(42.98435198026709,599.641993762285)"><circle cx="0" cy="0" r="11.10707791621446" style="fill: #999999; fill-opacity: 0.7; cursor: pointer; stroke-width: 0px;"></circle></g><g class="server" id="s_l79" transform="translate(238.25705824652687,766.3358978033066)"><circle cx="0" cy="0" r="7.111300701004744" style="fill: #999999; fill-opacity: 0.7; cursor: pointer; stroke-width: 0px;"></circle></g><g class="server" id="s_l80" transform="translate(75.2064155251719,670.8674987529521)"><circle cx="0" cy="0" r="8.965485629117357" style="fill: #999999; fill-opacity: 0.7; cursor: pointer; stroke-width: 0px;"></circle></g><g class="server" id="s_l81" transform="translate(271.1601791123394,737.217912298278)"><circle cx="0" cy="0" r="10.17901313895267" style="fill: #999999; fill-opacity: 0.7; cursor: pointer; stroke-width: 0px;"></circle></g><g class="server" id="s_l82" transform="translate(297.80881249462254,624.4130343197612)"><circle cx="0" cy="0" r="8.82709589064097" style="fill: #999999; fill-opacity: 0.7; cursor: pointer; stroke-width: 0px;"></circle></g><g class="server" id="s_l83" transform="translate(134.44109633914195,688.9226743098698)"><circle cx="0" cy="0" r="10.386890433383824" style="fill: #999999; fill-opacity: 0.7; cursor: pointer; stroke-width: 0px;"></circle></g><g class="server" id="s_l84" transform="translate(207.08321815589443,664.0788344969624)"><circle cx="0" cy="0" r="10.869294302294037" style="fill: #999999; fill-opacity: 0.7; cursor: pointer; stroke-width: 0px;"></circle></g><g class="server" id="s_l85" transform="translate(231.4558132912498,694.0804838163313)"><circle cx="0" cy="0" r="4.996792957564695" style="fill: #999999; fill-opacity: 0.7; cursor: pointer; stroke-width: 0px;"></circle></g><g class="server" id="s_l86" transform="translate(53.09237502748147,767.5363971825573)"><circle cx="0" cy="0" r="7.7553181880863375" style="fill: #999999; fill-opacity: 0.7; cursor: pointer; stroke-width: 0px;"></circle></g><g class="server" id="s_l87" transform="translate(508.24517161003314,612.3236972492887)"><circle cx="0" cy="0" r="6.544571524758911" style="fill: #999999; fill-opacity: 0.7; cursor: pointer; stroke-width: 0px;"></circle></g><g class="server" id="s_l88" transform="translate(84.8168715799693,759.2307819391135)"><circle cx="0" cy="0" r="7.011481550931711" style="fill: #999999; fill-opacity: 0.7; cursor: pointer; stroke-width: 0px;"></circle></g><g class="server" id="s_l89" transform="translate(92.96259036753327,692.1615216100472)"><circle cx="0" cy="0" r="10.470251038848328" style="fill: #999999; fill-opacity: 0.7; cursor: pointer; stroke-width: 0px;"></circle></g><g class="server" id="s_l90" transform="translate(160.02127202693373,586.2383495169342)"><circle cx="0" cy="0" r="5.036300551939432" style="fill: #999999; fill-opacity: 0.7; cursor: pointer; stroke-width: 0px;"></circle></g><g class="server" id="s_l91" transform="translate(476.2730019283481,595.8604371583206)"><circle cx="0" cy="0" r="10.761382987413674" style="fill: #999999; fill-opacity: 0.7; cursor: pointer; stroke-width: 0px;"></circle></g><g class="server" id="s_l92" transform="translate(226.63645374472253,705.5897249465343)"><circle cx="0" cy="0" r="8.304544353942902" style="fill: #999999; fill-opacity: 0.7; cursor: pointer; stroke-width: 0px;"></circle></g><g class="server" id="s_l93" transform="translate(24.984846074366942,722.1786937181023)"><circle cx="0" cy="0" r="10.939676073282946" style="fill: #999999; fill-opacity: 0.7; cursor: pointer; stroke-width: 0px;"></circle></g><g class="server" id="s_l94" transform="translate(278.4835527918767,662.6547908040811)"><circle cx="0" cy="0" r="7.284837654055582" style="fill: #999999; fill-opacity: 0.7; cursor: pointer; stroke-width: 0px;"></circle></g><g class="server" id="s_l95" transform="translate(118.51962062064558,776.0077196579077)"><circle cx="0" cy="0" r="10.20576447222578" style="fill: #999999; fill-opacity: 0.7; cursor: pointer; stroke-width: 0px;"></circle></g><g class="server" id="s_l96" transform="translate(128.18518134765327,766.5322251961916)"><circle cx="0" cy="0" r="11.75906485824713" style="fill: #999999; fill-opacity: 0.7; cursor: pointer; stroke-width: 0px;"></circle></g><g class="server" id="s_l97" transform="translate(129.11225260002539,755.084827690036)"><circle cx="0" cy="0" r="5.324877154047892" style="fill: #999999; fill-opacity: 0.7; cursor: pointer; stroke-width: 0px;"></circle></g><g class="server" id="s_l98" transform="translate(29.01495515485294,603.9793021511286)"><circle cx="0" cy="0" r="9.896307923495336" style="fill: #999999; fill-opacity: 0.7; cursor: pointer; stroke-width: 0px;"></circle></g><g class="server" id="s_l99" transform="translate(376.9131411437411,703.5131785611738)"><circle cx="0" cy="0" r="6.346482794449735" style="fill: #999999; fill-opacity: 0.7; cursor: pointer; stroke-width: 0px;"></circle></g></g><g><path d="M152.68879804643802,257.8381347750543L152.68879804643802,277.50284005742583C152.68879804643802,297.16754533979736,152.68879804643802,336.49695590454047,171.82399837203167,358.60726677536474C190.95919869762534,380.71757764618906,229.22959934881266,385.6087888230945,248.3647996744063,388.0543944115472L267.5,390.5" style="fill: none; stroke: #999999; stroke-width: 2px; stroke-opacity: 0.6;"></path><path d="M0.6737225956749171,194.29386324095435L0.673722595674917,223.25721513416025C0.6737225956749171,252.2205670273662,0.6737225956749171,310.1472708137781,45.144768829729095,342.8482936069524C89.61581506378327,375.54931640012666,178.55790753189163,383.0246582000633,223.0289537659458,386.76232910003165L267.5,390.5" style="fill: none; stroke: #999999; stroke-width: 2px; stroke-opacity: 0.6;"></path><path d="M235.87408370920457,253.53872316623793L235.87408370920457,273.58998657250123C235.87408370920457,293.6412499787645,235.87408370920457,333.74377679129105,241.14506975767046,356.57065626358474C246.41605580613637,379.3975357358784,256.95802790306817,384.9487678679392,262.22901395153406,387.7243839339696L267.5,390.5" style="fill: none; stroke: #999999; stroke-width: 2px; stroke-opacity: 0.6;"></path><path d="M12.84006824833341,85.57703110595837L12.84006824833341,131.13302895400156C12.84006824833341,176.68902680204474,12.84006824833341,267.8010224981311,55.2833902069445,318.6215173138047C97.7267121655556,369.4420121294783,182.61335608277778,379.97100606473913,225.05667804138886,385.23550303236954L267.5,390.5" style="fill: none; stroke: #999999; stroke-width: 2px; stroke-opacity: 0.6;"></path><path d="M530.2845169440843,51.51905991863696L530.2845169440843,101.99778538798503C530.2845169440843,152.47651085733312,530.2845169440843,253.43396179602928,486.4870974534036,309.9307851429231C442.68967796272284,366.427608489817,355.0948389813614,378.4638042449085,311.2974194906807,384.4819021224542L267.5,390.5" style="fill: none; stroke: #00aeff; stroke-width: 2px; stroke-opacity: 1;" class="selected"></path><path d="M399.8923580918927,241.88929505793877L399.8923580918927,264.00547480507356C399.8923580918927,286.1216545522083,399.8923580918927,330.3540140464779,377.8269650765772,355.12246487015483C355.76157206126175,379.8909156938317,311.6307860306309,385.1954578469158,289.5653930153154,387.8477289234579L267.5,390.5" style="fill: none; stroke: #999999; stroke-width: 2px; stroke-opacity: 0.6;"></path><path d="M11.208329615183175,223.74457911568842L11.208329615183173,248.5041766922332C11.208329615183175,273.263774268778,11.208329615183175,322.78296942186756,53.923608012652636,350.57553956925284C96.63888641012211,378.36810971663806,182.06944320506105,384.43405485831903,224.7847216025305,387.4670274291595L267.5,390.5" style="fill: none; stroke: #999999; stroke-width: 2px; stroke-opacity: 0.6;"></path><path d="M8.541159169981256,63.36331513818959L8.541159169981254,112.03678637686912C8.541159169981256,160.71025761554864,8.541159169981256,258.0572000929077,51.70096597498437,312.57998090320945C94.8607727799875,367.1027617135112,181.18038638999374,378.8013808567556,224.34019319499686,384.65069042837774L267.5,390.5" style="fill: none; stroke: #999999; stroke-width: 2px; stroke-opacity: 0.6;"></path><path d="M156.6717602510471,68.92266901434786L156.67176025104706,116.68523442700584C156.6717602510471,164.44779983966382,156.6717602510471,259.9729306649798,175.1431335425392,313.5691524959218C193.61450683403137,367.1653743268638,230.55725341701566,378.8326871634319,249.02862670850783,384.6663435817159L267.5,390.5" style="fill: none; stroke: #999999; stroke-width: 2px; stroke-opacity: 0.6;"></path><path d="M398.1191750941798,103.76362961603364L398.1191750941797,146.56025380126374C398.11917509417975,189.35687798649383,398.11917509417975,274.95012635695406,376.3493125784831,322.73952142094845C354.57945006278646,370.52891648494284,311.03972503139323,380.5144582424714,289.2698625156966,385.5072291212357L267.5,390.5" style="fill: none; stroke: #999999; stroke-width: 2px; stroke-opacity: 0.6;"></path><path d="M461.04487205739133,611.0488977836169L461.0448720573912,578.1536698042369C461.0448720573913,545.258441824857,461.0448720573913,479.467985866097,428.78739338115935,442.7098362354942C396.5299147049275,405.9516866048914,332.01495735246374,398.2258433024457,299.75747867623187,394.36292165122285L267.5,390.5" style="fill: none; stroke: #999999; stroke-width: 2px; stroke-opacity: 0.6;"></path><path d="M393.231045040302,643.9055007366399L393.231045040302,605.9754173911567C393.231045040302,568.0453340456738,393.231045040302,492.18516735470786,372.2758708669183,449.9509172319345C351.3206966935346,407.7166671091612,309.4103483467673,399.1083335545806,288.4551741733836,394.8041667772903L267.5,390.5" style="fill: none; stroke: #999999; stroke-width: 2px; stroke-opacity: 0.6;"></path><path d="M295.4355367901735,664.0481477311929L295.4355367901735,623.2018204388908C295.4355367901735,582.3554931465885,295.4355367901735,500.66283856198424,290.77961399181123,455.07148060678537C286.12369119344896,409.4801226515866,276.8118455967245,399.99006132579325,272.1559227983622,395.2450306628966L267.5,390.5" style="fill: none; stroke: #999999; stroke-width: 2px; stroke-opacity: 0.6;"></path><path d="M110.41709939483553,726.1108189606061L110.41709939483553,675.9488347418363C110.41709939483553,625.7868505230666,110.41709939483553,525.4628820855271,136.5975828290296,469.52774559209274C162.77806626322368,413.5926090986584,215.13903313161182,402.0463045493292,241.31951656580588,396.2731522746646L267.5,390.5" style="fill: none; stroke: #999999; stroke-width: 2px; stroke-opacity: 0.6;"></path><path d="M465.08559664012864,731.2861661736773L465.08559664012853,680.2666583406856C465.0855966401286,629.247150507694,465.0855966401286,527.2081348417106,432.1546638667738,470.41044047943103C399.223731093419,413.61274611715146,333.3618655467095,402.05637305857573,300.43093277335475,396.27818652928784L267.5,390.5" style="fill: none; stroke: #999999; stroke-width: 2px; stroke-opacity: 0.6;"></path><path d="M149.5402086386457,707.6607318434329L149.5402086386457,660.2796021178908C149.5402086386457,612.8984723923488,149.5402086386457,518.1362129412646,169.2001738655381,465.2760909673591C188.86013909243047,412.4159689934536,228.1800695462152,401.4579844967268,247.84003477310762,395.97899224836334L267.5,390.5" style="fill: none; stroke: #999999; stroke-width: 2px; stroke-opacity: 0.6;"></path><path d="M201.89203488873318,603.5808346709266L201.89203488873315,571.7780791748999C201.89203488873318,539.9753236788732,201.89203488873318,476.36981268681996,212.82669574061094,440.85634024166546C223.76135659248877,405.3428677965111,245.63067829624435,397.9214338982555,256.5653391481222,394.21071694912774L267.5,390.5" style="fill: none; stroke: #999999; stroke-width: 2px; stroke-opacity: 0.6;"></path><path d="M33.5798012430314,671.5582213609235L33.57980124303139,629.5833529284699C33.5798012430314,587.6084844960163,33.5798012430314,503.6587476311092,72.56650103585949,456.81571073762194C111.55320082868758,409.97267384413465,189.5266004143438,400.2363369220673,228.51330020717188,395.36816846103363L267.5,390.5" style="fill: none; stroke: #999999; stroke-width: 2px; stroke-opacity: 0.6;"></path><path d="M508.27108934987336,736.5744496170227L508.27108934987336,684.8568397976636C508.27108934987336,633.1392299783047,508.27108934987336,529.7040103395866,468.1425744582278,472.02493540341624C428.0140595665822,414.34586046724576,347.7570297832911,402.4229302336229,307.6285148916455,396.46146511681144L267.5,390.5" style="fill: none; stroke: #999999; stroke-width: 2px; stroke-opacity: 0.6;"></path><path d="M411.5045929874759,630.7976392737174L411.50459298747586,594.9427411074821C411.5045929874759,559.0878429412468,411.5045929874759,487.3780466087761,387.5038274895632,447.3284400631565C363.5030619916506,407.278833517537,315.5015309958253,398.88941675876845,291.5007654979126,394.6947083793842L267.5,390.5" style="fill: none; stroke: #999999; stroke-width: 2px; stroke-opacity: 0.6;"></path><path d="M491.5468152926769,740.6923723337047L491.5468152926769,688.2609609944254C491.5468152926769,635.8295496551463,491.5468152926769,530.9667269765878,454.2056794105641,472.601331587637C416.86454352845124,414.2359361986862,342.1822717642256,402.3679680993431,304.8411358821128,396.43398404967155L267.5,390.5" style="fill: none; stroke: #999999; stroke-width: 2px; stroke-opacity: 0.6;"></path><path d="M295.9047848149203,650.6883933985112L295.9047848149203,611.847346701817C295.9047848149203,573.0063000051227,295.9047848149203,495.3242066117343,291.17065401243354,451.9594743786491C286.4365232099468,408.59474214556394,276.9682616049734,399.54737107278197,272.2341308024867,395.02368553639093L267.5,390.5" style="fill: none; stroke: #999999; stroke-width: 2px; stroke-opacity: 0.6;"></path><path d="M161.0434582841117,603.8120472024207L161.0434582841117,571.9864416190801C161.0434582841117,540.1608360357396,161.0434582841117,476.5096248690586,178.78621523675974,440.95761700198847C196.5289721894078,405.40560913491834,232.01448609470387,397.95280456745917,249.75724304735195,394.22640228372956L267.5,390.5" style="fill: none; stroke: #999999; stroke-width: 2px; stroke-opacity: 0.6;"></path><path d="M523.0092472932301,602.2723609285808L523.0092472932301,570.6672685448735C523.0092472932301,539.0621761611662,523.0092472932301,475.85199139375175,480.42437274435844,440.55659790565494C437.8394981954867,405.26120441755813,352.66974909774336,397.88060220877907,310.08487454887165,394.1903011043895L267.5,390.5" style="fill: none; stroke: #999999; stroke-width: 2px; stroke-opacity: 0.6;"></path><path d="M199.45303477463312,749.1167594065507L199.4530347746331,695.4905181767284C199.45303477463312,641.8642769469062,199.45303477463312,534.6117944872617,210.79419564552757,474.84233458616984C222.13535651642206,415.0728746850781,244.817678258211,402.786437342539,256.1588391291055,396.6432186712695L267.5,390.5" style="fill: none; stroke: #999999; stroke-width: 2px; stroke-opacity: 0.6;"></path><path d="M280.66835746052675,672.7036132533357L280.66835746052675,630.4898283740649C280.66835746052675,588.2760434947941,280.66835746052675,503.8484737362525,278.4736312171056,456.8145381940299C276.27890497368446,409.78060265180727,271.88945248684223,400.14030132590364,269.6947262434211,395.3201506629518L267.5,390.5" style="fill: none; stroke: #999999; stroke-width: 2px; stroke-opacity: 0.6;"></path><path d="M459.89481820724905,742.215321080923L459.89481820724893,689.5940657327085C459.894818207249,636.9728103844939,459.894818207249,531.7302996880649,427.82901517270744,473.11107950791103C395.76321213816595,414.4918593277572,331.631606069083,402.4959296638786,299.5658030345415,396.49796483193927L267.5,390.5" style="fill: none; stroke: #999999; stroke-width: 2px; stroke-opacity: 0.6;"></path><path d="M209.28823327296413,741.5030676285002L209.28823327296408,689.0121842376819C209.2882332729641,636.5213008468636,209.2882332729641,531.539534065227,218.99019439413672,473.0390227938103C228.6921555153094,414.5385115223936,248.09607775765468,402.5192557611968,257.7980388788273,396.5096278805984L267.5,390.5" style="fill: none; stroke: #999999; stroke-width: 2px; stroke-opacity: 0.6;"></path><path d="M493.1230064271949,717.0353700920548L493.1230064271949,668.1708672547172C493.1230064271949,619.3063644173799,493.1230064271949,521.5773587427049,455.5191720226624,467.1547970606957C417.9153376181299,412.7322353786866,342.70766880906496,401.6161176893433,305.10383440453245,396.0580588446716L267.5,390.5" style="fill: none; stroke: #999999; stroke-width: 2px; stroke-opacity: 0.6;"></path><path d="M236.94750342634507,727.3718193440928L236.947503426345,677.013897678318C236.94750342634504,626.655976012543,236.94750342634504,525.9401326809931,242.03958618862083,469.7948294569776C247.13166895089668,413.6495262329621,257.31583447544836,402.07476311648105,262.4079172377241,396.2873815582405L267.5,390.5" style="fill: none; stroke: #999999; stroke-width: 2px; stroke-opacity: 0.6;"></path><path d="M491.9196847314015,579.1500949746377L491.91968473140145,551.0445200907246C491.9196847314015,522.9389452068116,491.9196847314015,466.72779543898554,454.51640394283453,435.2861129432126C417.11312315426767,403.84443044743966,342.30656157713383,397.17221522371983,304.90328078856686,393.83610761185986L267.5,390.5" style="fill: none; stroke: #999999; stroke-width: 2px; stroke-opacity: 0.6;"></path><path d="M89.5702651864849,621.9054479908951L89.57026518648489,587.3599058953829C89.5702651864849,552.8143637998706,89.5702651864849,483.7232796088461,119.2252209887374,445.1557049436969C148.88017679098994,406.58813027854774,208.19008839549494,398.5440651392738,237.84504419774748,394.5220325696369L267.5,390.5" style="fill: none; stroke: #999999; stroke-width: 2px; stroke-opacity: 0.6;"></path><path d="M491.4195431175176,579.4775875518122L491.41954311751755,551.2771956335055C491.4195431175176,523.0768037151988,491.4195431175176,466.67601987858535,454.09961926459795,435.1797552866166C416.7796954116784,403.68349069464796,342.1398477058392,397.0917453473239,304.81992385291954,393.79587267366196L267.5,390.5" style="fill: none; stroke: #999999; stroke-width: 2px; stroke-opacity: 0.6;"></path><path d="M387.8644095850177,588.7002473470583L387.8644095850177,559.1349883606038C387.8644095850177,529.5697293741493,387.8644095850177,470.4392114012405,367.8036746541814,437.4058368433975C347.7429397233451,404.37246228555443,307.62146986167255,397.4362311427772,287.56073493083625,393.9681155713886L267.5,390.5" style="fill: none; stroke: #999999; stroke-width: 2px; stroke-opacity: 0.6;"></path><path d="M321.1521811177954,651.0117839075201L321.15218111779535,612.1102210151396C321.1521811177954,573.2086581227591,321.1521811177954,495.4055323379981,312.2101509314961,451.9869016867448C303.26812074519694,408.5682710354914,285.38406037259847,399.5341355177457,276.4420301862992,395.0170677588728L267.5,390.5" style="fill: none; stroke: #999999; stroke-width: 2px; stroke-opacity: 0.6;"></path><path d="M35.58458059094846,747.5799743170119L35.58458059094846,694.1037413807782C35.58458059094846,640.6275084445444,35.58458059094846,533.675042572077,74.23715049245705,474.1617135192417C112.88972039396563,414.64838446640636,190.1948601969828,402.5741922332032,228.84743009849137,396.53709611660156L267.5,390.5" style="fill: none; stroke: #999999; stroke-width: 2px; stroke-opacity: 0.6;"></path><path d="M390.9177221788559,725.4918199361463L390.9177221788558,675.3850195716695C390.91772217885585,625.2782192071929,390.91772217885585,525.0646184782396,370.34810181571316,469.23264848888186C349.77848145257053,413.40067849952413,308.63924072628527,401.95033924976207,288.06962036314263,396.225169624881L267.5,390.5" style="fill: none; stroke: #999999; stroke-width: 2px; stroke-opacity: 0.6;"></path><path d="M276.8550129723735,682.4760377978082L276.8550129723735,638.862926919029C276.8550129723735,595.2498160402498,276.8550129723735,508.02359428269136,275.29584414364456,459.36092131639C273.73667531491566,410.69824835008865,270.6183376574578,400.59912417504427,269.0591688287289,395.54956208752213L267.5,390.5" style="fill: none; stroke: #999999; stroke-width: 2px; stroke-opacity: 0.6;"></path><path d="M119.32243727031164,721.8399251229473L119.32243727031162,672.3268958072396C119.32243727031164,622.8138664915319,119.32243727031164,523.7878078601166,144.0186977252597,468.56448700629204C168.71495818020776,413.3411661524675,218.10747909010385,401.9205830762337,242.80373954505194,396.21029153811685L267.5,390.5" style="fill: none; stroke: #999999; stroke-width: 2px; stroke-opacity: 0.6;"></path><path d="M532.764475325821,733.5009562777473L532.764475325821,682.18283970888C532.764475325821,630.864723140013,532.764475325821,528.2284900022787,488.5537294381841,471.0616639559875C444.3429835505473,413.8948379096963,355.92149177527364,402.1974189548481,311.7107458876368,396.34870947742405L267.5,390.5" style="fill: none; stroke: #999999; stroke-width: 2px; stroke-opacity: 0.6;"></path><path d="M417.96024710987695,587.4615373819875L417.96024710987695,558.0845557434101C417.96024710987695,528.7075741048328,417.96024710987695,469.9536108276781,392.88353925823077,437.1266879306802C367.8068314065846,404.2997650336823,317.6534157032923,397.3998825168411,292.5767078516461,393.94994125842055L267.5,390.5" style="fill: none; stroke: #999999; stroke-width: 2px; stroke-opacity: 0.6;"></path><path d="M286.57430044026114,704.8227535604542L286.5743004402611,657.8226549278097C286.57430044026114,610.8225562951653,286.57430044026114,516.8223590298765,283.3952503668842,464.43523343646734C280.2162002935074,412.04810784305835,273.8581001467537,401.2740539215291,270.6790500733768,395.88702696076456L267.5,390.5" style="fill: none; stroke: #999999; stroke-width: 2px; stroke-opacity: 0.6;"></path><path d="M140.7652281492483,719.9238195814341L140.76522814924826,670.7025714301124C140.7652281492483,621.4813232787907,140.7652281492483,523.0388269761472,161.88769012437353,468.1348570459081C183.01015209949884,413.23088711566913,225.2550760497494,401.8654435578345,246.3775380248747,396.18272177891726L267.5,390.5" style="fill: none; stroke: #999999; stroke-width: 2px; stroke-opacity: 0.6;"></path><path d="M295.753235911252,671.5945712713476L295.753235911252,629.614072472047C295.753235911252,587.6335736727465,295.753235911252,503.67257607414535,291.0443632593766,456.82348086225403C286.3354906075013,409.9743856503628,276.9177453037506,400.2371928251814,272.2088726518753,395.36859641259065L267.5,390.5" style="fill: none; stroke: #999999; stroke-width: 2px; stroke-opacity: 0.6;"></path><path d="M204.89553343388252,625.3382301367393L204.89553343388246,590.246327483959C204.8955334338825,555.1544248311786,204.8955334338825,484.9706195256181,215.32961119490204,445.8309145028282C225.76368895592165,406.6912094800383,246.6318444779608,398.59560474001916,257.06592223898036,394.54780237000955L267.5,390.5" style="fill: none; stroke: #999999; stroke-width: 2px; stroke-opacity: 0.6;"></path><path d="M360.0508256966714,645.589666940313L360.0508256966713,607.4652858669815C360.0508256966714,569.34090479365,360.0508256966714,493.0921426469869,344.6256880805594,450.5771981569347C329.2005504644476,408.0622536668825,298.3502752322238,399.28112683344125,282.92513761611184,394.89056341672057L267.5,390.5" style="fill: none; stroke: #999999; stroke-width: 2px; stroke-opacity: 0.6;"></path><path d="M482.78716058353893,658.0641749771992L482.7871605835388,618.1016577598759C482.7871605835389,578.1391405425527,482.7871605835389,498.2141061079061,446.905967152949,453.62007694503956C411.0247737223592,409.026047782173,339.2623868611796,399.7630238910865,303.3811934305898,395.1315119455432L267.5,390.5" style="fill: none; stroke: #999999; stroke-width: 2px; stroke-opacity: 0.6;"></path><path d="M159.482048334321,683.6799025137277L159.482048334321,639.8841411766477C159.482048334321,596.0883798395678,159.482048334321,508.49685716540773,177.48504027860082,459.6335400797864C195.48803222288066,410.7702229941651,231.49401611144032,400.63511149708256,249.49700805572013,395.5675557485412L267.5,390.5" style="fill: none; stroke: #999999; stroke-width: 2px; stroke-opacity: 0.6;"></path><path d="M364.5991297578439,593.5754411546524L364.5991297578439,563.2259337806064C364.5991297578439,532.8764264065604,364.5991297578439,472.1774116584685,348.4159414648699,438.3315047993597C332.2327531718959,404.48559794025107,299.86637658594793,397.4927989701255,283.68318829297397,393.99639948506274L267.5,390.5" style="fill: none; stroke: #999999; stroke-width: 2px; stroke-opacity: 0.6;"></path><path d="M299.1433758591302,632.9133265866408L299.1433758591302,596.6338737186043C299.1433758591302,560.3544208505679,299.1433758591302,487.79551511449495,293.86947988260846,447.3932940167215C288.59558390608674,406.991072918948,278.0477919530434,398.745536459474,272.77389597652166,394.622768229737L267.5,390.5" style="fill: none; stroke: #999999; stroke-width: 2px; stroke-opacity: 0.6;"></path><path d="M269.3409303331282,587.5861962175494L269.34093033312814,558.1642440074761C269.3409303331282,528.7422917974027,269.3409303331282,469.8983873772561,269.0341086109401,437.0506880076645C268.72728688875213,404.20298863807295,268.11364344437607,397.3514943190365,267.806821722188,393.9257471595182L267.5,390.5" style="fill: none; stroke: #999999; stroke-width: 2px; stroke-opacity: 0.6;"></path><path d="M160.04419411765411,740.6926900977296L160.04419411765411,688.3137265427206C160.04419411765411,635.9347629877116,160.04419411765411,531.1768358776936,177.9534950980451,472.81138752807203C195.86279607843608,414.44593917845043,231.681398039218,402.4729695892252,249.59069901960902,396.4864847946126L267.5,390.5" style="fill: none; stroke: #999999; stroke-width: 2px; stroke-opacity: 0.6;"></path><path d="M269.1676573990844,643.7109316301438L269.16765739908436,605.816726712866C269.1676573990844,567.9225217955881,269.1676573990844,492.1341119610324,268.88971449923696,449.9322900226751C268.6117715993896,407.73046808431775,268.0558857996948,399.1152340421589,267.77794289984735,394.8076170210794L267.5,390.5" style="fill: none; stroke: #999999; stroke-width: 2px; stroke-opacity: 0.6;"></path><path d="M106.98193801334128,671.7339012569662L106.98193801334125,629.7065653564075C106.98193801334126,587.6792294558488,106.98193801334126,503.62455765473135,133.73494834445103,456.7522407785703C160.48795867556083,409.87992390240925,213.9939793377804,400.1899619512046,240.7469896688902,395.34498097560225L267.5,390.5" style="fill: none; stroke: #999999; stroke-width: 2px; stroke-opacity: 0.6;"></path><path d="M256.0295935010072,723.7711876827989L256.0295935010071,673.965983455009C256.0295935010072,624.1607792272192,256.0295935010072,524.5503707716396,257.94132791750593,469.0051728245064C259.8530623340048,413.45997487737327,263.6765311670024,401.97998743868663,265.58826558350114,396.2399937193433L267.5,390.5" style="fill: none; stroke: #999999; stroke-width: 2px; stroke-opacity: 0.6;"></path><path d="M415.4097982356325,726.9060207486647L415.4097982356325,676.5996384544623C415.4097982356325,626.2932561602598,415.4097982356325,525.6804915718549,390.7581651963604,469.61282144707747C366.1065321570883,413.54515132230006,316.80326607854414,402.02257566115,292.15163303927204,396.261287830575L267.5,390.5" style="fill: none; stroke: #999999; stroke-width: 2px; stroke-opacity: 0.6;"></path><path d="M105.2348259696737,650.2013790741436L105.23482596967366,611.3690524490638C105.23482596967368,572.536725823984,105.23482596967368,494.87207257382454,132.2790216413947,451.5885093948006C159.32321731311578,408.3049462157767,213.41160865655786,399.40247310788834,240.45580432827893,394.95123655394417L267.5,390.5" style="fill: none; stroke: #999999; stroke-width: 2px; stroke-opacity: 0.6;"></path><path d="M357.69584862631746,620.6144794378622L357.6958486263174,586.2072732206816C357.69584862631746,551.8000670035012,357.69584862631746,482.9856545691403,342.6632071885978,444.63324132949657C327.6305657508783,406.2808280898529,297.56528287543915,398.39041404492644,282.5326414377195,394.4452070224632L267.5,390.5" style="fill: none; stroke: #999999; stroke-width: 2px; stroke-opacity: 0.6;"></path><path d="M71.65746270096861,605.5784255127813L71.65746270096861,573.4171227808232C71.65746270096861,541.2558200488652,71.65746270096861,476.9332145849489,104.2978855841405,441.0868103328187C136.9383084673124,405.24040608068844,202.21915423365618,397.8702030403442,234.85957711682806,394.18510152017205L267.5,390.5" style="fill: none; stroke: #999999; stroke-width: 2px; stroke-opacity: 0.6;"></path><path d="M337.4070210510399,755.0691639944953L337.40702105103986,700.5312959068683C337.4070210510399,645.9934278192414,337.4070210510399,536.9176916439876,325.75585087586654,476.15616431157173C314.1046807006933,415.39463697915585,290.80234035034664,402.9473184895779,279.15117017517326,396.72365924478896L267.5,390.5" style="fill: none; stroke: #999999; stroke-width: 2px; stroke-opacity: 0.6;"></path><path d="M383.9573827071581,743.7879473679003L383.9573827071581,690.8784135046737C383.9573827071581,637.9688796414471,383.9573827071581,532.149811914994,364.54781892263173,473.26848735367724C345.13825513810536,414.3871627923605,306.3191275690527,402.44358139618026,286.9095637845263,396.4717906980901L267.5,390.5" style="fill: none; stroke: #999999; stroke-width: 2px; stroke-opacity: 0.6;"></path><path d="M142.78297340497375,689.2050839906736L142.78297340497375,644.5950037409671C142.78297340497375,599.9849234912605,142.78297340497375,510.7647629918473,163.5691445041448,460.98058232673503C184.35531560331583,411.19640166162276,225.9276578016579,400.8482008308114,246.71382890082896,395.6741004154057L267.5,390.5" style="fill: none; stroke: #999999; stroke-width: 2px; stroke-opacity: 0.6;"></path><path d="M291.44257841748185,761.5909386916512L291.44257841748185,706.1028977289859C291.44257841748185,650.6148567663207,291.44257841748185,539.6387748409902,287.45214868123486,477.79028505904836C283.46171894498787,415.9417952771065,275.48085947249393,403.22089763855325,271.49042973624694,396.8604488192766L267.5,390.5" style="fill: none; stroke: #999999; stroke-width: 2px; stroke-opacity: 0.6;"></path><path d="M190.29023188748397,705.8956637358112L190.29023188748394,658.6453160382297C190.29023188748397,611.3949683406483,190.29023188748397,516.8942729454855,203.15852657290327,464.3283289895168C216.02682125832263,411.7623850335483,241.76341062916129,401.13119251677415,254.63170531458064,395.8155962583871L267.5,390.5" style="fill: none; stroke: #999999; stroke-width: 2px; stroke-opacity: 0.6;"></path><path d="M288.2542854791973,720.6321678065215L288.2542854791973,671.2607209946627C288.2542854791973,621.8892741828041,288.2542854791973,523.1463805590868,284.795237899331,468.1243525913332C281.33619031946483,413.10232462357965,274.4180951597324,401.80116231178977,270.9590475798662,396.1505811558949L267.5,390.5" style="fill: none; stroke: #999999; stroke-width: 2px; stroke-opacity: 0.6;"></path><path d="M301.68155352119356,590.375723509549L301.68155352119356,560.524430045056C301.68155352119356,530.6731365805629,301.68155352119356,470.9705496515769,295.98462793432793,437.65792906665206C290.28770234746236,404.3453084817272,278.89385117373115,397.4226542408636,273.1969255868656,393.9613271204318L267.5,390.5" style="fill: none; stroke: #999999; stroke-width: 2px; stroke-opacity: 0.6;"></path><path d="M327.25436359178275,694.8608172405784L327.2543635917827,649.3131734955139C327.25436359178275,603.7655297504493,327.25436359178275,512.6702422603202,317.29530299315223,461.9434393868904C307.33624239452183,411.2166365134607,287.4181211972609,400.85831825673034,277.4590605986304,395.67915912836514L267.5,390.5" style="fill: none; stroke: #999999; stroke-width: 2px; stroke-opacity: 0.6;"></path><path d="M115.24479715735652,611.445403325685L115.24479715735652,578.4310811145341C115.24479715735652,545.4167589033832,115.24479715735652,479.3881144810814,140.62066429779708,442.5638805934672C165.99653143823767,405.73964670585303,216.74826571911882,398.1198233529265,242.12413285955938,394.30991167646323L267.5,390.5" style="fill: none; stroke: #999999; stroke-width: 2px; stroke-opacity: 0.6;"></path><path d="M242.40793126169592,704.6084243420516L242.4079312616959,657.6282044219779C242.40793126169592,610.6479845019041,242.40793126169592,516.6875446617565,246.5899427180799,464.3361406047479C250.77195417446393,411.9847365477393,259.13597708723194,401.24236827386966,263.31798854361597,395.8711841369348L267.5,390.5" style="fill: none; stroke: #999999; stroke-width: 2px; stroke-opacity: 0.6;"></path><path d="M43.00721702049486,582.0235419017652L43.007217020494856,553.4441807590845C43.00721702049486,524.864819616404,43.00721702049486,467.7060973310429,80.42268085041238,435.78550701408204C117.83814468032989,403.8649166971212,192.66907234016494,397.18245834856054,230.08453617008246,393.8412291742803L267.5,390.5" style="fill: none; stroke: #999999; stroke-width: 2px; stroke-opacity: 0.6;"></path><path d="M130.40361030609347,766.6466350628765L130.40361030609347,710.3140290875515C130.40361030609347,653.9814231122264,130.40361030609347,541.3162111615763,153.2530085884112,478.62510531776354C176.10240687072897,415.93399947395085,221.80120343536447,403.21699973697537,244.6506017176822,396.8584998684877L267.5,390.5" style="fill: none; stroke: #999999; stroke-width: 2px; stroke-opacity: 0.6;"></path><path d="M102.22190549829975,764.8356939509135L102.22190549829975,708.8790688491646C102.22190549829975,652.9224437474159,102.22190549829975,541.0091935439182,129.76825458191644,478.6199112187658C157.31460366553316,416.2306288936136,212.40730183276656,403.3653144468068,239.95365091638325,396.9326572234034L267.5,390.5" style="fill: none; stroke: #999999; stroke-width: 2px; stroke-opacity: 0.6;"></path><path d="M28.46881739096716,641.3133530463941L28.46881739096716,603.790670012183C28.46881739096716,566.2679869779719,28.46881739096716,491.2226209095496,68.30734782580596,449.42039540181725C108.14587826064476,407.6181698940849,187.82293913032237,399.05908494704244,227.66146956516116,394.7795424735212L267.5,390.5" style="fill: none; stroke: #999999; stroke-width: 2px; stroke-opacity: 0.6;"></path><path d="M43.95870451349765,758.8765743931366L43.95870451349764,703.7640692630894C43.95870451349765,648.6515641330424,43.95870451349765,538.426553872948,81.21558709458137,477.03045814075864C118.47246967566508,415.63436240856925,192.98623483783254,403.06718120428457,230.24311741891626,396.7835906021423L267.5,390.5" style="fill: none; stroke: #999999; stroke-width: 2px; stroke-opacity: 0.6;"></path><path d="M25.00622879830189,712.6618735038203L25.006228798301883,664.4459724142317C25.006228798301887,616.2300713246432,25.006228798301887,519.7982691454661,65.42185733191823,466.10462356149594C105.83748586553457,412.41097797752593,186.6687429327673,401.4554889887629,227.08437146638363,395.97774449438145L267.5,390.5" style="fill: none; stroke: #999999; stroke-width: 2px; stroke-opacity: 0.6;"></path><path d="M368.3571279188618,760.0192951462935L368.35712791886175,704.6832453611767C368.3571279188618,649.3471955760599,368.3571279188618,538.6750960058262,351.54760659905145,477.0885468147773C334.7380852792412,415.50199762372836,301.1190426396206,403.0009988118642,284.30952131981024,396.7504994059321L267.5,390.5" style="fill: none; stroke: #999999; stroke-width: 2px; stroke-opacity: 0.6;"></path><path d="M149.25241481279954,595.5522431769184L149.25241481279954,564.882947905571C149.25241481279954,534.2136526342235,149.25241481279954,472.87506209152855,168.96034567733295,438.6996882287088C188.66827654186636,404.52431436588904,228.08413827093315,397.5121571829445,247.7920691354666,394.0060785914722L267.5,390.5" style="fill: none; stroke: #999999; stroke-width: 2px; stroke-opacity: 0.6;"></path><path d="M379.0160166961141,675.1814172852737L379.01601669611404,632.6770117840447C379.0160166961141,590.1726062828158,379.0160166961141,505.16379528035793,360.43001391342835,457.7168923994789C341.84401113074273,410.2699895186,304.67200556537136,400.38499475929996,286.0860027826856,395.44249737965L267.5,390.5" style="fill: none; stroke: #999999; stroke-width: 2px; stroke-opacity: 0.6;"></path><path d="M349.8633623297792,711.7721887297752L349.8633623297792,663.7147802431814C349.8633623297792,615.6573717565875,349.8633623297792,519.5425547834,336.13613527481596,465.99718999510407C322.4089082198528,412.4518252068083,294.95445410992636,401.47591260340414,281.2272270549632,395.987956301702L267.5,390.5" style="fill: none; stroke: #999999; stroke-width: 2px; stroke-opacity: 0.6;"></path><path d="M167.1691146690864,764.5191406652195L167.1691146690864,708.5817267673567C167.1691146690864,652.6443128694941,167.1691146690864,540.7694850737687,183.89092889090534,478.43296162956545C200.61274311272427,416.0964381853622,234.0563715563621,403.2982190926811,250.77818577818107,396.8991095463405L267.5,390.5" style="fill: none; stroke: #999999; stroke-width: 2px; stroke-opacity: 0.6;"></path><path d="M5.38900310988538,679.579778210133L5.389003109885379,636.3660944684552C5.38900310988538,593.1524107267777,5.38900310988538,506.72504324342236,49.07416925823781,458.5450802084002C92.75933540659024,410.36511717337805,180.1296677032951,400.43255858668897,223.81483385164756,395.4662792933445L267.5,390.5" style="fill: none; stroke: #999999; stroke-width: 2px; stroke-opacity: 0.6;"></path><path d="M426.32602795842104,738.2932201467652L426.3260279584209,686.2227113885823C426.326027958421,634.1522026303996,426.326027958421,530.0111851140341,399.8550232986841,472.0456484229065C373.3840186389473,414.08011173177897,320.44200931947364,402.2900558658895,293.9710046597368,396.39502793294474L267.5,390.5" style="fill: none; stroke: #999999; stroke-width: 2px; stroke-opacity: 0.6;"></path><path d="M327.82769488403574,764.3937954831284L327.8276948840357,708.3868975957067C327.82769488403574,652.3799997082851,327.82769488403574,540.366203933442,317.7730790700297,478.05057135292054C307.7184632560238,415.7349387723991,287.6092316280119,403.11746938619956,277.5546158140059,396.8087346930998L267.5,390.5" style="fill: none; stroke: #999999; stroke-width: 2px; stroke-opacity: 0.6;"></path><path d="M222.32806743355468,647.8638517493248L222.32806743355462,609.4351639004399C222.32806743355465,571.0064760515552,222.32806743355465,494.1491003537855,229.8567228612955,451.25512506223134C237.38537828903642,408.36114977067723,252.4426891445182,399.4305748853386,259.97134457225906,394.9652874426693L267.5,390.5" style="fill: none; stroke: #999999; stroke-width: 2px; stroke-opacity: 0.6;"></path><path d="M97.93807394336909,648.6313367240459L97.93807394336908,610.0794000041498C97.93807394336909,571.5274632842537,97.93807394336909,494.42358984446156,126.19839495280756,451.40170039045387C154.45871596224606,408.37981093644623,210.979357981123,399.4399054682231,239.23967899056152,394.96995273411153L267.5,390.5" style="fill: none; stroke: #999999; stroke-width: 2px; stroke-opacity: 0.6;"></path><path d="M401.5828845172655,635.0101789030019L401.58288451726537,598.4451478905098C401.5828845172654,561.8801168780176,401.5828845172654,488.75005485303325,379.23573709772114,447.9983583691996C356.8885896781769,407.24666188536594,312.19429483908846,398.87333094268297,289.8471474195442,394.6866654713414L267.5,390.5" style="fill: none; stroke: #999999; stroke-width: 2px; stroke-opacity: 0.6;"></path><path d="M504.5494130451698,651.3990424986368L504.54941304516973,612.3501817828353C504.5494130451698,573.3013210670338,504.5494130451698,495.20359963543086,465.04117753764143,451.720425885658C425.5329420301132,408.2372521358852,346.5164710150566,399.3686260679426,307.00823550752824,394.93431303397125L267.5,390.5" style="fill: none; stroke: #999999; stroke-width: 2px; stroke-opacity: 0.6;"></path><path d="M465.6971527589485,727.0829498574649L465.69715275894845,676.7841347177987C465.6971527589485,626.4853195781326,465.6971527589485,525.8876892988003,432.66429396579036,469.7905309892228C399.63143517263234,413.69337267964534,333.56571758631617,402.09668633982267,300.532858793158,396.29834316991133L267.5,390.5" style="fill: none; stroke: #999999; stroke-width: 2px; stroke-opacity: 0.6;"></path><path d="M42.98435198026709,588.5349158460705L42.98435198026709,559.0147964344301C42.98435198026709,529.4946770227898,42.98435198026709,470.4544381995091,80.40362665022258,437.4486188918307C117.82290132017805,404.44279958415234,192.661450660089,397.4713997920761,230.08072533004452,393.98569989603806L267.5,390.5" style="fill: none; stroke: #999999; stroke-width: 2px; stroke-opacity: 0.6;"></path><path d="M238.25705824652687,759.2245971023018L238.25705824652687,704.0344292153065C238.25705824652687,648.8442613283114,238.25705824652687,538.463925554321,243.1308818721057,477.00982603727067C248.00470549768457,415.55572652022045,257.75235274884227,403.02786326011017,262.6261763744211,396.7639316300551L267.5,390.5" style="fill: none; stroke: #999999; stroke-width: 2px; stroke-opacity: 0.6;"></path><path d="M75.2064155251719,661.9020131238348L75.20641552517189,621.3411359157449C75.2064155251719,580.7802587076549,75.2064155251719,499.6585042914751,107.25534627097657,454.42483543750257C139.30427701678127,409.19116658353016,203.4021385083906,399.845583291765,235.45106925419532,395.1727916458825L267.5,390.5" style="fill: none; stroke: #999999; stroke-width: 2px; stroke-opacity: 0.6;"></path><path d="M271.1601791123394,727.0388991593253L271.1601791123394,676.727714504409C271.1601791123394,626.4165298494927,271.1601791123394,525.7941605396602,270.5501492602828,469.704344013106C269.9401194082262,413.61452748655176,268.7200597041131,402.0572637432759,268.1100298520565,396.2786318716379L267.5,390.5" style="fill: none; stroke: #999999; stroke-width: 2px; stroke-opacity: 0.6;"></path><path d="M297.80881249462254,615.5859384291202L297.80881249462254,581.9701659295962C297.80881249462254,548.3543934300722,297.80881249462254,481.1228484310242,292.75734374551877,443.6085253595041C287.705874996415,406.0942022879841,277.6029374982075,398.297101143992,272.5514687491037,394.398550571996L267.5,390.5" style="fill: none; stroke: #999999; stroke-width: 2px; stroke-opacity: 0.6;"></path><path d="M134.44109633914195,678.535783876486L134.44109633914195,635.5035311355695C134.44109633914195,592.4712783946529,134.44109633914195,506.40677291282,156.6175802826183,458.4008089334056C178.79406422609463,410.3948449539913,223.1470321130473,400.4474224769956,245.32351605652366,395.4737112384978L267.5,390.5" style="fill: none; stroke: #999999; stroke-width: 2px; stroke-opacity: 0.6;"></path><path d="M207.08321815589443,653.2095401946683L207.08321815589437,613.9842640705062C207.0832181558944,574.7589879463443,207.0832181558944,496.3084356980202,217.15268179657863,452.52351233224215C227.22214543726292,408.73858896646414,247.36107271863145,399.619294483232,257.4305363593157,395.059647241616L267.5,390.5" style="fill: none; stroke: #999999; stroke-width: 2px; stroke-opacity: 0.6;"></path><path d="M231.4558132912498,689.0836908587665L231.45581329124977,644.3794171125776C231.4558132912498,599.6751433663887,231.4558132912498,510.26659587401093,237.46317774270813,460.5026473975498C243.4705421941665,410.7386989210887,255.48527109708323,400.61934946054436,261.4926355485416,395.55967473027215L267.5,390.5" style="fill: none; stroke: #999999; stroke-width: 2px; stroke-opacity: 0.6;"></path><path d="M53.09237502748147,759.7810789944709L53.09237502748146,704.518172448435C53.09237502748147,649.2552659023992,53.09237502748147,538.7294528103274,88.82697918956788,477.1826063112489C124.56158335165429,415.6357598121705,196.03079167582715,403.0678799060852,231.76539583791356,396.7839399530426L267.5,390.5" style="fill: none; stroke: #999999; stroke-width: 2px; stroke-opacity: 0.6;"></path><path d="M508.24517161003314,605.7791257245298L508.245171610033,573.5963330579295C508.2451716100331,541.4135403913294,508.2451716100331,477.0479550581291,468.1209763416942,441.16810077070744C427.99678107335535,405.2882464832859,347.7483905366777,397.8941232416429,307.62419526833884,394.19706162082144L267.5,390.5" style="fill: none; stroke: #999999; stroke-width: 2px; stroke-opacity: 0.6;"></path><path d="M84.8168715799693,752.2193003881818L84.8168715799693,698.0782633558033C84.8168715799693,643.937226323425,84.8168715799693,535.6551522586681,115.26405964997441,475.3686021939712C145.71124771997953,415.0820521292742,206.60562385998975,402.7910260646371,237.05281192999485,396.64551303231855L267.5,390.5" style="fill: none; stroke: #999999; stroke-width: 2px; stroke-opacity: 0.6;"></path><path d="M92.96259036753327,681.6912705711989L92.96259036753327,638.1870841694998C92.96259036753327,594.6828977678008,92.96259036753327,507.67452496440274,122.05215863961105,459.1426465358696C151.14172691168883,410.6107681073364,209.3208634558444,400.5553840536682,238.41043172792217,395.5276920268341L267.5,390.5" style="fill: none; stroke: #999999; stroke-width: 2px; stroke-opacity: 0.6;"></path><path d="M160.02127202693373,581.2020489649948L160.0212720269337,552.6806799627778C160.02127202693373,524.159310960561,160.02127202693373,467.1165729561272,177.93439335577807,435.3328981286281C195.84751468462247,403.5492233011289,231.6737573423112,397.02461165056445,249.5868786711556,393.7623058252822L267.5,390.5" style="fill: none; stroke: #999999; stroke-width: 2px; stroke-opacity: 0.6;"></path><path d="M476.2730019283481,585.0990541709069L476.273001928348,556.0885524283945C476.27300192834804,527.0780506858819,476.27300192834804,469.05704720085697,441.47750160695665,436.62387150570584C406.6820012855653,404.19069581055464,337.09100064278266,397.3453479052773,302.29550032139133,393.9226739526386L267.5,390.5" style="fill: none; stroke: #999999; stroke-width: 2px; stroke-opacity: 0.6;"></path><path d="M226.63645374472253,697.2851805925914L226.6364537447225,651.4058125762683C226.63645374472253,605.5264445599454,226.63645374472253,513.7677085272994,233.44704478726874,462.6368450952008C240.257635829815,411.50598166310226,253.87881791490747,401.0029908315511,260.68940895745374,395.75149541577554L267.5,390.5" style="fill: none; stroke: #999999; stroke-width: 2px; stroke-opacity: 0.6;"></path><path d="M24.984846074366942,711.2390176448193L24.984846074366935,663.3104929326511C24.98484607436694,615.3819682204829,24.98484607436694,519.5249187961465,65.40403839530578,466.0684158553433C105.82323071624461,412.6119129145401,186.6616153581223,401.55595645727004,227.08080767906114,396.027978228635L267.5,390.5" style="fill: none; stroke: #999999; stroke-width: 2px; stroke-opacity: 0.6;"></path><path d="M278.4835527918767,655.3699531500256L278.4835527918767,615.7608741384227C278.4835527918767,576.1517951268197,278.4835527918767,496.93363710361393,276.65296065989725,452.788644911943C274.8223685279178,408.64365272027203,271.1611842639589,399.571826360136,269.3305921319794,395.035913180068L267.5,390.5" style="fill: none; stroke: #999999; stroke-width: 2px; stroke-opacity: 0.6;"></path><path d="M118.51962062064558,765.8019551856819L118.51962062064557,709.6767579823667C118.51962062064558,653.5515607790514,118.51962062064558,541.3011663724211,143.34968385053799,478.7508405081408C168.1797470804304,416.2005146438605,217.83987354021517,403.35025732193026,242.6699367701076,396.9251286609651L267.5,390.5" style="fill: none; stroke: #999999; stroke-width: 2px; stroke-opacity: 0.6;"></path><path d="M128.18518134765327,754.7731603379444L128.18518134765327,700.3281707015568C128.18518134765327,645.8831810651693,128.18518134765327,536.9932017923942,151.40431778971106,476.28100840273675C174.62345423176885,415.5688150130794,221.0617271158844,403.03440750653965,244.2808635579422,396.7672037532698L267.5,390.5" style="fill: none; stroke: #999999; stroke-width: 2px; stroke-opacity: 0.6;"></path><path d="M129.11225260002539,749.7599505359882L129.11225260002539,695.9597059081575C129.11225260002539,642.1594612803267,129.11225260002539,534.5589720246651,152.1768771666878,474.6823136020004C175.24150173335025,414.80565517933576,221.3707508666751,402.6528275896678,244.43537543333753,396.5764137948339L267.5,390.5" style="fill: none; stroke: #999999; stroke-width: 2px; stroke-opacity: 0.6;"></path><path d="M29.01495515485294,594.0829942276333L29.014955154852935,563.7104835588799C29.014955154852938,533.3379728901265,29.014955154852938,472.59295155261964,68.76246262904411,438.66245251468075C108.50997010323528,404.73195347674186,188.00498505161764,397.61597673837093,227.7524925258088,394.05798836918547L267.5,390.5" style="fill: none; stroke: #999999; stroke-width: 2px; stroke-opacity: 0.6;"></path><path d="M376.9131411437411,697.1666957667242L376.9131411437411,651.2724661149563C376.9131411437411,605.3782364631885,376.9131411437411,513.5897771596528,358.6776176197842,462.47866119853217C340.4420940958274,411.3675452374115,303.97104704791366,400.93377261870575,285.73552352395683,395.71688630935284L267.5,390.5" style="fill: none; stroke: #999999; stroke-width: 2px; stroke-opacity: 0.6;"></path></g><g class="me" transform="translate(267.5,390.5)"><path class="bg" d="M43.30127018922194,25L-43.30127018922194,24.999999999999993L-9.184850980798453e-15,-50Z" style="fill: #333333; stroke: #999999; stroke-width: 1px; stroke-opacity: 0.5;"></path><g class="axis" transform="rotate(-90)"><line x1="10" x2="50" style="stroke: #dddddd; stroke-width: 1px; stroke-opacity: 0.5; fill: none;"></line></g><g class="axis" transform="rotate(30)"><line x1="10" x2="50" style="stroke: #dddddd; stroke-width: 1px; stroke-opacity: 0.5; fill: none;"></line></g><g class="axis" transform="rotate(150)"><line x1="10" x2="50" style="stroke: #dddddd; stroke-width: 1px; stroke-opacity: 0.5; fill: none;"></line></g><g><path class="hive" d="M26.520186082992677,15.311436573974788L-41.996615566283474,24.24675730224698L-9.120086854935177e-15,-49.647440519183874Z" style="fill: #00aeff; stroke: #999999; stroke-width: 1px; stroke-opacity: 0.5;"></path></g></g></g></svg>